HIERARCHY
ROOT hip
{
	OFFSET 0.000000 0.000000 0.000000 
	CHANNELS 6 Xposition Yposition Zposition Xrotation Yrotation Zrotation
	JOINT abdomen
	{
		OFFSET 0.000000 3.402643 0.000000 
		CHANNELS 3 Xrotation  Yrotation Zrotation
		JOINT chest
		{
			OFFSET 0.000000 8.438565 -0.680529 
			CHANNELS 3 Xrotation  Yrotation Zrotation
			JOINT neck
			{
				OFFSET 0.000000 10.207942 -0.272212 
				CHANNELS 3 Xrotation  Yrotation Zrotation
				JOINT head
				{
					OFFSET 0.000000 3.130431 0.000000 
					CHANNELS 3 Xrotation  Yrotation Zrotation
					End Site
					{
						OFFSET 0.000000 3.130435 0.000000 
					}
				}
			}
			JOINT lCollar
			{
				OFFSET 3.470700 6.669187 -0.816635 
				CHANNELS 3 Xrotation  Yrotation Zrotation
				JOINT lShldr
				{
					OFFSET 3.198488 0.000000 0.000000 
					CHANNELS 3 Xrotation  Yrotation Zrotation
					JOINT lForeArm
					{
						OFFSET 10.139888 0.000000 0.000000 
						CHANNELS 3 Xrotation  Yrotation Zrotation
						JOINT lHand
						{
							OFFSET 8.370511 0.000000 0.000000 
							CHANNELS 3 Xrotation  Yrotation Zrotation
							End Site
							{
								OFFSET 4.083176 0.000000 0.000000 
							}
						}
					}
				}
			}
			JOINT rCollar
			{
				OFFSET -3.470700 6.669187 -0.816635 
				CHANNELS 3 Xrotation  Yrotation Zrotation
				JOINT rShldr
				{
					OFFSET -3.198488 0.000000 0.000000 
					CHANNELS 3 Xrotation  Yrotation Zrotation
					JOINT rForeArm
					{
						OFFSET -10.139888 0.000000 0.000000 
						CHANNELS 3 Xrotation  Yrotation Zrotation
						JOINT rHand
						{
							OFFSET -8.370511 0.000000 0.000000 
							CHANNELS 3 Xrotation  Yrotation Zrotation
							End Site
							{
								OFFSET -4.083176 0.000000 0.000000 
							}
						}
					}
				}
			}
		}
	}
	JOINT lThigh
	{
		OFFSET 5.308129 -1.633274 1.361059 
		CHANNELS 3 Xrotation  Yrotation Zrotation
		JOINT lShin
		{
			OFFSET -2.041588 -20.007561 0.000000 
			CHANNELS 3 Xrotation  Yrotation Zrotation
			JOINT lFoot
			{
				OFFSET 0.000000 -19.190928 -1.224953 
				CHANNELS 3 Xrotation  Yrotation Zrotation
				End Site
				{
					OFFSET 0.000000 -2.449906 4.627600 
				}
			}
		}
	}
	JOINT rThigh
	{
		OFFSET -5.308129 -1.633274 1.361059 
		CHANNELS 3 Xrotation  Yrotation Zrotation
		JOINT rShin
		{
			OFFSET 2.041588 -20.007561 0.000000 
			CHANNELS 3 Xrotation  Yrotation Zrotation
			JOINT rFoot
			{
				OFFSET 0.000000 -19.190928 -1.224953 
				CHANNELS 3 Xrotation  Yrotation Zrotation
				End Site
				{
					OFFSET 0.000000 -2.449906 4.627600 
				}
			}
		}
	}
}
MOTION
Frames: 20
Frame Time: 0.033333
0.363695 51.738846 5.160614 1.664812 1.213960 -2.300977 0.000000 0.000000 0.000000 -5.770155 7.085030 2.556838 29.266588 0.036766 2.368456 -19.150509 -6.519364 2.810613 24.359072 1.965947 13.119453 7.993995 -1.231446 -93.590302 73.551460 -6.671243 50.625229 -51.396069 9.870204 -23.232615 15.316933 -30.048973 -13.670795 46.803226 86.226509 50.895939 -5.097126 7.764211 -34.619526 -75.524223 -44.792240 18.372131 3.747546 19.197405 6.867996 11.995333 1.280661 5.772272 3.033754 -29.401085 15.836061 11.203604 0.919835 -0.067797 6.218732 -1.024570 -3.035880 1.183802 -6.737976 17.498865 
0.369380 51.749809 5.159207 1.575685 1.242692 -2.278276 0.000000 0.000000 0.000000 -5.675066 7.087420 2.576860 29.303724 0.029094 2.272584 -19.241590 -6.554879 2.756514 24.372519 1.839701 13.011435 7.991544 -1.182417 -93.522919 73.477951 -6.658217 50.629295 -51.409515 9.803358 -23.263083 15.296567 -30.142916 -13.623547 45.040005 86.713402 52.647709 -9.265403 9.770642 -32.794964 -77.098228 -43.685905 9.585757 3.859423 19.173435 6.809445 11.951235 1.288515 5.751250 3.030262 -29.359938 15.979919 11.254487 0.892676 -0.136258 6.307311 -0.982095 -2.966354 1.111546 -6.826113 17.299129 
0.376852 51.765934 5.162681 1.443703 1.290859 -2.209772 0.000000 0.000000 0.000000 -5.531633 7.078697 2.528377 29.381021 0.018276 2.214040 -19.345537 -6.576989 2.676186 24.384413 1.737268 12.912584 8.004519 -1.159563 -93.494698 73.331917 -6.612585 50.643276 -51.417976 9.748282 -23.279631 15.351954 -30.166344 -13.489852 40.646915 87.344200 56.894764 -18.005188 13.950477 -28.478905 -78.090096 -39.318527 -4.368935 4.062603 19.133818 6.698060 11.891042 1.308065 5.761314 3.068411 -29.327951 16.053305 11.559431 0.851068 -0.282515 6.011995 -0.981229 -2.841645 1.256358 -6.789127 17.427954 
0.382733 51.789436 5.173916 1.228954 1.309335 -2.108060 0.000000 0.000000 0.000000 -5.314291 7.056764 2.440843 29.467720 0.017342 2.156818 -19.441488 -6.544424 2.604593 24.401197 1.657402 12.751954 8.052492 -1.101297 -93.410278 73.184830 -6.598606 50.670116 -51.422249 9.706347 -23.295815 15.438479 -30.118347 -13.324272 35.401421 87.737335 61.929863 -24.423527 16.357986 -25.105453 -77.634834 -34.368439 -13.309347 4.382610 19.092478 6.573936 11.808284 1.305954 5.753673 3.106340 -29.264219 16.095171 11.892928 0.790916 -0.428813 5.823948 -0.961905 -2.762525 1.333299 -6.729798 17.574783 
0.384746 51.816399 5.192116 0.991700 1.269166 -1.998010 0.000000 0.000000 0.000000 -5.077514 7.034988 2.353298 29.554464 0.016220 2.099693 -19.513689 -6.499308 2.585392 24.421230 1.649626 12.530120 8.120053 -0.970052 -93.230759 73.138206 -6.637698 50.645199 -51.443871 9.670757 -23.295366 15.565562 -29.995596 -13.167607 31.286163 87.917877 65.860695 -26.112997 16.520048 -24.316433 -77.442467 -33.129978 -15.273249 4.770665 19.049925 6.448102 11.695357 1.291882 5.720869 3.153341 -29.157887 16.108036 12.203197 0.784295 -0.536668 5.757665 -1.001085 -2.743430 1.283365 -6.648445 17.238733 
0.386976 51.844440 5.216476 0.732340 1.199681 -1.869922 0.000000 0.000000 0.000000 -4.828667 7.014534 2.246093 29.631813 0.014527 2.058400 -19.563391 -6.467082 2.592675 24.442551 1.695498 12.273377 8.185257 -0.778129 -92.964851 73.228203 -6.728409 50.594704 -51.470509 9.613382 -23.275135 15.678928 -29.828321 -13.058681 37.075657 87.381531 60.080101 -17.359461 12.535941 -28.936083 -78.071716 -38.976952 -3.166772 5.201720 18.995497 6.311431 11.576840 1.296691 5.675622 3.155641 -29.053186 16.054810 12.456507 0.746893 -0.625215 5.809175 -0.992036 -2.792581 1.176525 -6.599547 17.005524 
0.386330 51.852425 5.221813 0.699142 1.160550 -1.842848 0.000000 0.000000 0.000000 -4.795439 7.008359 2.216731 29.651669 0.010471 2.064991 -19.572273 -6.487030 2.592537 24.450996 1.753940 12.158642 8.190803 -0.656728 -92.801994 73.364151 -6.828798 50.524612 -51.476612 9.601064 -23.275187 15.719783 -29.730024 -13.055050 44.483593 86.234390 52.830811 -6.511117 7.547037 -33.918728 -76.123566 -41.981094 15.319706 5.281154 18.982147 6.278688 11.565601 1.306331 5.675402 3.165913 -29.062452 16.000378 12.348660 0.762705 -0.605429 6.095910 -1.000675 -2.868621 1.058606 -6.610959 17.126556 
0.383880 51.848385 5.216289 0.789695 1.141507 -1.875288 0.000000 0.000000 0.000000 -4.885999 7.013088 2.236096 29.622746 0.014131 2.089654 -19.552364 -6.510822 2.584496 24.450672 1.825577 12.141601 8.137833 -0.606320 -92.742088 73.467316 -6.910601 50.455132 -51.394733 9.743539 -23.352156 15.715454 -29.675058 -13.118594 47.776058 85.300362 49.663692 -6.127994 9.247363 -33.641251 -75.548088 -41.521133 17.978067 5.144297 19.006739 6.318765 11.632499 1.299080 5.694126 3.134919 -29.094362 15.929347 12.144080 0.776772 -0.556934 6.292108 -0.989729 -2.908316 1.034535 -6.589988 17.488575 
0.384620 51.850124 5.211423 0.819191 1.151461 -1.873127 0.000000 0.000000 0.000000 -4.905512 7.012331 2.236031 29.593830 0.008134 2.097351 -19.551477 -6.530333 2.584596 24.452984 1.885454 12.097806 8.042553 -0.578881 -92.718689 73.506363 -6.929024 50.433910 -51.217274 10.075274 -23.512672 15.731249 -29.596668 -13.160075 48.026550 85.220261 49.424213 -6.807374 9.991192 -33.265221 -75.785446 -41.073273 16.753811 5.078826 19.007175 6.321072 11.649691 1.311485 5.723251 3.132433 -29.111906 15.886849 12.075496 0.770372 -0.566908 6.338665 -0.988142 -2.877833 1.014982 -6.552978 17.543715 
0.387430 51.846107 5.200637 0.901028 1.190943 -1.896594 0.000000 0.000000 0.000000 -4.965235 7.009225 2.245639 29.574667 0.021772 2.138797 -19.551678 -6.560152 2.567468 24.447781 1.908967 12.151288 7.959644 -0.613358 -92.772560 73.527908 -6.895909 50.429703 -51.127060 10.264878 -23.567976 15.717244 -29.588694 -13.199694 46.332363 85.833015 51.088673 -13.598867 13.442621 -30.005981 -77.424850 -39.741673 5.091491 4.938731 19.009130 6.331279 11.695283 1.315413 5.761430 3.121369 -29.204208 15.852203 12.073050 0.770235 -0.624673 6.174170 -0.986531 -2.771383 1.145914 -6.659837 17.432814 
0.387202 51.840771 5.192330 0.954664 1.230203 -1.931973 0.000000 0.000000 0.000000 -5.019567 7.023435 2.284774 29.545752 0.015739 2.146506 -19.531908 -6.529447 2.585079 24.442183 1.916518 12.213497 7.954169 -0.660359 -92.829842 73.619965 -6.811847 50.450714 -51.241600 10.052742 -23.469330 15.692247 -29.592228 -13.252913 39.698071 87.124237 57.554234 -24.025778 17.029907 -24.926094 -77.817810 -35.296677 -8.693475 4.839736 19.022490 6.364114 11.718346 1.309013 5.802224 3.085320 -29.296194 15.798158 12.123549 0.744031 -0.624975 5.964388 -0.976945 -2.693345 1.207667 -6.700940 17.198515 
0.386438 51.836632 5.190218 0.978507 1.249705 -1.969501 0.000000 0.000000 0.000000 -5.033317 7.030241 2.314192 29.496267 0.018632 2.125061 -19.449343 -6.469633 2.664521 24.438175 1.952054 12.249348 7.979984 -0.686850 -92.869476 73.681824 -6.758937 50.488029 -51.317669 9.900894 -23.400120 15.655562 -29.594505 -13.336442 27.122864 88.098068 69.937386 -29.131979 17.721869 -22.793108 -77.292870 -31.187778 -16.095053 4.776757 19.026550 6.404697 11.742025 1.311252 5.819473 3.072044 -29.346287 15.704956 12.141653 0.776385 -0.615966 5.874858 -0.986122 -2.632743 1.181184 -6.698822 17.000517 
0.388767 51.831970 5.190407 1.019019 1.269463 -1.976371 0.000000 0.000000 0.000000 -5.084893 7.036318 2.333667 29.437733 0.011470 2.117906 -19.337179 -6.417958 2.744847 24.435547 1.963807 12.276102 7.994930 -0.723905 -92.918129 73.677254 -6.735260 50.526596 -51.334404 9.877151 -23.385624 15.603396 -29.594702 -13.452162 23.870806 88.243408 73.153687 -27.216818 16.504065 -24.117689 -77.464272 -31.904568 -14.800089 4.728860 19.035805 6.393611 11.747923 1.332343 5.848330 3.100776 -29.407042 15.656870 12.084600 0.754671 -0.604883 5.928238 -0.956658 -2.656036 1.156103 -6.715648 16.974176 
0.390707 51.818653 5.185766 1.141752 1.309157 -2.016437 0.000000 0.000000 0.000000 -5.204734 7.039582 2.352888 29.360401 0.022491 2.176341 -19.208092 -6.406034 2.774044 24.427116 2.018918 12.356546 7.978868 -0.771726 -92.984627 73.716400 -6.744428 50.508087 -51.350540 9.931700 -23.317425 15.532096 -29.622097 -13.601902 33.975273 87.751152 63.246758 -15.997987 11.418532 -29.981159 -77.910294 -38.037468 0.020867 4.543073 19.049610 6.427510 11.798135 1.326639 5.878303 3.087841 -29.460724 15.657657 11.878886 0.775170 -0.575628 6.061462 -0.944686 -2.644574 1.140794 -6.757794 17.219496 
0.392551 51.802292 5.186534 1.235361 1.348643 -2.058669 0.000000 0.000000 0.000000 -5.316008 7.042259 2.381922 29.293222 0.024115 2.233158 -19.106432 -6.419444 2.811340 24.415964 2.085754 12.463744 7.923782 -0.817195 -93.049385 73.787827 -6.780928 50.467258 -51.344353 10.009660 -23.292091 15.403269 -29.677038 -13.841375 43.173119 86.945816 54.390194 -6.306829 6.837614 -34.377434 -75.795677 -39.538361 17.556370 4.397566 19.063896 6.465251 11.825832 1.339207 5.907806 3.078980 -29.504139 15.713487 11.704729 0.771434 -0.526681 6.239010 -0.913811 -2.675524 1.134291 -6.770545 17.633291 
0.392328 51.796650 5.199349 1.206540 1.358191 -2.060838 0.000000 0.000000 0.000000 -5.298111 7.051921 2.391841 29.283108 0.028575 2.226326 -19.073208 -6.421120 2.855496 24.414682 2.135457 12.464837 7.876264 -0.803252 -93.037697 73.816536 -6.818511 50.400883 -51.246601 10.176370 -23.384129 15.329769 -29.697247 -14.000482 47.914024 86.180008 49.973370 -8.629625 10.561767 -32.760883 -75.690277 -39.760651 17.182426 4.458361 19.054527 6.479488 11.801807 1.346562 5.890236 3.072169 -29.516010 15.685271 11.645534 0.790236 -0.507719 6.455257 -0.911970 -2.714192 0.987310 -6.827267 17.497601 
0.393533 51.794731 5.219650 1.134361 1.348086 -2.026931 0.000000 0.000000 0.000000 -5.256310 7.045567 2.372352 29.311634 0.015694 2.168953 -19.092299 -6.401889 2.872214 24.415411 2.203290 12.438833 7.893954 -0.816825 -93.057755 73.778366 -6.770810 50.429611 -51.154163 10.244611 -23.537792 15.305745 -29.675434 -14.090218 47.977570 86.381142 50.013866 -9.892114 11.432138 -32.225533 -76.125809 -38.757080 14.705489 4.614287 19.050085 6.434553 11.716377 1.333678 5.867091 3.120767 -29.507360 15.656083 11.694361 0.780597 -0.526607 6.552200 -0.901649 -2.734705 0.875458 -6.863822 17.253487 
0.391779 51.782097 5.220375 1.234779 1.358448 -2.048940 0.000000 0.000000 0.000000 -5.357849 7.048590 2.401413 29.291775 0.019766 2.162349 -19.104002 -6.423272 2.837368 24.408211 2.270483 12.501640 7.915524 -0.950297 -93.231552 73.663040 -6.629163 50.516270 -51.123791 10.199565 -23.621212 15.271423 -29.684097 -14.164485 44.312511 87.246765 53.616714 -16.024242 14.021139 -29.383289 -77.502861 -37.260456 3.758255 4.493842 19.064150 6.477606 11.726787 1.346044 5.887765 3.124838 -29.573387 15.609717 11.518811 0.796240 -0.478204 6.684296 -0.930604 -2.771515 0.858701 -6.862809 17.473059 
0.391241 51.776516 5.215961 1.325472 1.368738 -2.071664 0.000000 0.000000 0.000000 -5.436272 7.055099 2.401153 29.301170 0.025041 2.155066 -19.129892 -6.417234 2.767437 24.403074 2.284017 12.555074 8.013606 -1.098747 -93.408585 73.478111 -6.439521 50.680275 -51.211548 9.909083 -23.642107 15.257568 -29.697437 -14.158964 31.957615 88.324402 65.726738 -26.956646 17.871677 -23.871822 -77.593491 -33.104156 -12.225636 4.373495 19.065859 6.489626 11.743174 1.338596 5.920116 3.165356 -29.613398 15.629028 11.303502 0.804270 -0.458550 6.934589 -0.908640 -2.803052 0.845136 -6.846272 18.127527 
0.391125 51.777920 5.211981 1.353675 1.369000 -2.059756 0.000000 0.000000 0.000000 -5.463909 7.045057 2.391187 29.320328 0.021164 2.130544 -19.144495 -6.380067 2.732299 24.402649 2.268025 12.563814 8.135680 -1.140375 -93.452271 73.435654 -6.380591 50.766201 -51.388035 9.499654 -23.549362 15.277774 -29.696941 -14.116221 19.307686 88.716759 78.199959 -30.450476 18.478024 -22.263838 -77.210152 -31.967106 -16.711071 4.326297 19.065308 6.477536 11.755925 1.359937 5.935268 3.152946 -29.643003 15.644214 11.206614 0.787758 -0.458159 7.050185 -0.877948 -2.803295 0.833738 -6.778428 18.486654 
